<?xml version="1.0" encoding="UTF-8"?>
<svg width="32px" height="32px" viewBox="0 0 32 32" version="1.1" xmlns="http://www.w3.org/2000/svg" xmlns:xlink="http://www.w3.org/1999/xlink">
    <title>fullscreen</title>
    <g id="fullscreen" stroke="none" stroke-width="1" fill="none" fill-rule="evenodd">
        <path d="M5.49925,21.5 L5.5,24.5 L9.999,24.5 C10.5512847,24.5 10.999,24.9477153 10.999,25.5 L10.999,26.5 C10.999,27.0522847 10.5512847,27.5 9.999,27.5 L4,27.5 C3.22030388,27.5 2.57955132,26.9051119 2.50686658,26.14446 L2.5,26 L2.49918168,21.5 C2.49891976,20.9871642 2.88487104,20.5644227 3.38219835,20.5065671 L3.499,20.5 L4.499,20.5 C5.05118712,20.50025 5.49886192,20.9478129 5.49925,21.5 Z M29.4991818,21.5 L29.5,26 C29.5,26.8284271 28.8284271,27.5 28,27.5 L21.999,27.5 C21.4467153,27.5 20.999,27.0522847 20.999,26.5 L20.999,25.5 C20.999,24.9477153 21.4467153,24.5 21.999,24.5 L26.5,24.5 L26.49925,21.5 C26.4988897,20.9871642 26.8848076,20.5643964 27.3821307,20.5065069 L27.499,20.5 L28.499,20.5 C29.0512137,20.5001818 29.4988996,20.9477863 29.4991818,21.5 Z M10.999,5.5 L10.999,6.5 C10.999,7.05228475 10.5512847,7.5 9.999,7.5 L5.5,7.5 L5.4992,11.5 C5.49888954,12.0522066 5.05120665,12.4998 4.499,12.5 L3.499,12.5 C2.98616416,12.5001428 2.56349284,12.1141129 2.50572773,11.6167749 L2.49915385,11.5 L2.5,6 C2.5,5.22030388 3.09488808,4.57955132 3.85553999,4.50686658 L4,4.5 L9.999,4.5 C10.5512847,4.5 10.999,4.94771525 10.999,5.5 Z M28,4.5 C28.8284271,4.5 29.5,5.17157288 29.5,6 L29.4991538,11.5 C29.498915,12.0522247 29.0512247,12.4998461 28.499,12.5 L27.499,12.5 C26.9861642,12.5001857 26.5634928,12.1141588 26.5057277,11.616821 L26.4992,11.5 L26.5,7.5 L21.999,7.5 C21.4467153,7.5 20.999,7.05228475 20.999,6.5 L20.999,5.5 C20.999,4.94771525 21.4467153,4.5 21.999,4.5 L28,4.5 Z" id="形状" fill="#D8D8D8" fill-rule="nonzero"></path>
    </g>
</svg>