<?xml version="1.0" encoding="UTF-8"?>
<svg width="32px" height="32px" viewBox="0 0 32 32" version="1.1" xmlns="http://www.w3.org/2000/svg" xmlns:xlink="http://www.w3.org/1999/xlink">
    <title>pause</title>
    <g id="pause" stroke="none" stroke-width="1" fill="none" fill-rule="evenodd">
        <path d="M9.5,5 C10.8807119,5 12,6.11928813 12,7.5 L12,24.5 C12,25.8807119 10.8807119,27 9.5,27 C8.11928813,27 7,25.8807119 7,24.5 L7,7.5 C7,6.11928813 8.11928813,5 9.5,5 Z M22.5,5 C23.8807119,5 25,6.11928813 25,7.5 L25,24.5 C25,25.8807119 23.8807119,27 22.5,27 C21.1192881,27 20,25.8807119 20,24.5 L20,7.5 C20,6.11928813 21.1192881,5 22.5,5 Z" id="å½¢çŠ¶ç»“åˆ" fill="#D8D8D8"></path>
    </g>
</svg>