<?xml version="1.0" encoding="UTF-8"?>
<svg width="32px" height="32px" viewBox="0 0 32 32" version="1.1" xmlns="http://www.w3.org/2000/svg" xmlns:xlink="http://www.w3.org/1999/xlink">
    <title>speed</title>
    <g id="speed" stroke="none" stroke-width="1" fill="none" fill-rule="evenodd">
        <path d="M6,5" id="路径-5" stroke="#979797"></path>
        <path d="M17.5338299,5.35266677 C18.1675031,4.81904724 19.1137808,4.90015676 19.6474004,5.53382995 L27.1049703,14.3896942 C27.8885996,15.320254 27.8885996,16.6798131 27.1049703,17.6103729 L19.6474004,26.4662372 C19.1137808,27.0999104 18.1675031,27.1810199 17.5338299,26.6474004 C16.9001568,26.1137808 16.8190472,25.1675031 17.3526668,24.5338299 L24.5380336,15.9990336 L17.3526668,7.46623718 C16.8523985,6.87216857 16.8924194,6.00334989 17.4215068,5.4573792 L17.5338299,5.35266677 Z M4.53382995,5.35266677 C5.16750313,4.81904724 6.11378084,4.90015676 6.64740036,5.53382995 L14.1049703,14.3896942 C14.8885996,15.320254 14.8885996,16.6798131 14.1049703,17.6103729 L6.64740036,26.4662372 C6.11378084,27.0999104 5.16750313,27.1810199 4.53382995,26.6474004 C3.90015676,26.1137808 3.81904724,25.1675031 4.35266677,24.5338299 L11.5380336,15.9990336 L4.35266677,7.46623718 C3.85239846,6.87216857 3.89241936,6.00334989 4.42150676,5.4573792 L4.53382995,5.35266677 Z" id="形状" fill="#D8D8D8" fill-rule="nonzero"></path>
    </g>
</svg>