<?xml version="1.0" encoding="UTF-8"?>
<svg width="32px" height="32px" viewBox="0 0 32 32" version="1.1" xmlns="http://www.w3.org/2000/svg" xmlns:xlink="http://www.w3.org/1999/xlink">
    <title>mute</title>
    <g id="mute" stroke="none" stroke-width="1" fill="none" fill-rule="evenodd">
        <path d="M5.56521739,8.82608696 L9.02121241,8.82608696 C9.56340075,8.82608696 10.0823563,8.60595827 10.4591892,8.21613115 L13.9968059,4.55652767 C14.7645061,3.76235504 16.0306542,3.74089491 16.8248268,4.50859512 C17.2146539,4.88542799 17.4347826,5.40438353 17.4347826,5.94657007 L17.4347826,26.0534281 C17.4347826,27.1579976 16.5393521,28.0534281 15.4347826,28.0534281 C14.8925943,28.0534281 14.3736387,27.8332994 13.9968059,27.4434723 L10.4591892,23.7838688 C10.0823563,23.3940417 9.56340075,23.173913 9.02121241,23.173913 L5.56521739,23.173913 C4.46064789,23.173913 3.56521739,22.2784825 3.56521739,21.173913 L3.56521739,10.826087 C3.56521739,9.72151746 4.46064789,8.82608696 5.56521739,8.82608696 Z M25.8137335,8.41876181 C27.2752654,10.4649065 28,13.0014776 28,16 C28,18.9985224 27.2752654,21.5350935 25.8137335,23.5812382 C25.4927245,24.0306508 24.8681744,24.1347425 24.4187618,23.8137335 C23.9693492,23.4927245 23.8652575,22.8681744 24.1862665,22.4187618 C25.3914013,20.7315732 26,18.6014776 26,16 C26,13.3985224 25.3914013,11.2684268 24.1862665,9.58123819 C23.8652575,9.13182561 23.9693492,8.50727552 24.4187618,8.18626653 C24.8681744,7.86525754 25.4927245,7.96934922 25.8137335,8.41876181 Z M21.7071068,10.2928932 C23.2311671,11.8169536 24,13.7390358 24,16 C24,18.2609642 23.2311671,20.1830464 21.7071068,21.7071068 C21.3165825,22.0976311 20.6834175,22.0976311 20.2928932,21.7071068 C19.9023689,21.3165825 19.9023689,20.6834175 20.2928932,20.2928932 C21.4354995,19.1502869 22,17.7390358 22,16 C22,14.2609642 21.4354995,12.8497131 20.2928932,11.7071068 C19.9023689,11.3165825 19.9023689,10.6834175 20.2928932,10.2928932 C20.6834175,9.90236893 21.3165825,9.90236893 21.7071068,10.2928932 Z" id="形状" fill="#D8D8D8"></path>
    </g>
</svg>