<?xml version="1.0" encoding="UTF-8"?>
<svg width="32px" height="32px" viewBox="0 0 32 32" version="1.1" xmlns="http://www.w3.org/2000/svg" xmlns:xlink="http://www.w3.org/1999/xlink">
    <title>unmute</title>
    <g id="unmute" stroke="none" stroke-width="1" fill="none" fill-rule="evenodd">
        <path d="M5.56521739,8.82608696 L9.02121241,8.82608696 C9.56340075,8.82608696 10.0823563,8.60595827 10.4591892,8.21613115 L13.9968059,4.55652767 C14.7645061,3.76235504 16.0306542,3.74089491 16.8248268,4.50859512 C17.2146539,4.88542799 17.4347826,5.40438353 17.4347826,5.94657007 L17.4347826,26.0534281 C17.4347826,27.1579976 16.5393521,28.0534281 15.4347826,28.0534281 C14.8925943,28.0534281 14.3736387,27.8332994 13.9968059,27.4434723 L10.4591892,23.7838688 C10.0823563,23.3940417 9.56340075,23.173913 9.02121241,23.173913 L5.56521739,23.173913 C4.46064789,23.173913 3.56521739,22.2784825 3.56521739,21.173913 L3.56521739,10.826087 C3.56521739,9.72151746 4.46064789,8.82608696 5.56521739,8.82608696 Z M21.8786797,12.4644661 L24.0002174,14.5855701 L26.1213203,12.4644661 C26.5118446,12.0739418 27.1450096,12.0739418 27.5355339,12.4644661 C27.9260582,12.8549904 27.9260582,13.4881554 27.5355339,13.8786797 L25.4142174,15.9995701 L27.5355339,18.1213203 C27.9260582,18.5118446 27.9260582,19.1450096 27.5355339,19.5355339 C27.1450096,19.9260582 26.5118446,19.9260582 26.1213203,19.5355339 L24.0002174,17.4135701 L21.8786797,19.5355339 C21.4881554,19.9260582 20.8549904,19.9260582 20.4644661,19.5355339 C20.0739418,19.1450096 20.0739418,18.5118446 20.4644661,18.1213203 L22.5852174,15.9995701 L20.4644661,13.8786797 C20.0739418,13.4881554 20.0739418,12.8549904 20.4644661,12.4644661 C20.8549904,12.0739418 21.4881554,12.0739418 21.8786797,12.4644661 Z" id="形状" fill="#D8D8D8"></path>
    </g>
</svg>